<svg width="100" height="100" fill="none" xmlns="http://www.w3.org/2000/svg"><circle cx="50" cy="50" r="50" fill="#FF7500" fill-opacity=".2"/><path d="M40.6809 27.3522c-.4002-1.4937-1.9356-2.3801-3.4293-1.9799-1.4937.4003-2.3801 1.9356-1.9799 3.4293l.7247 2.7046c.4003 1.4937 1.9356 2.3802 3.4293 1.9799 1.4937-.4002 2.3801-1.9356 1.9799-3.4293l-.7247-2.7046ZM28.8015 35.2718c-1.4937-.4002-3.029.4862-3.4293 1.9799-.4002 1.4937.4862 3.0291 1.9799 3.4293l2.7046.7247c1.4937.4003 3.0291-.4862 3.4293-1.9799.4002-1.4937-.4862-3.029-1.9799-3.4293l-2.7046-.7247ZM53.4792 33.6803c1.0934-1.0935 1.0934-2.8663 0-3.9598-1.0935-1.0935-2.8664-1.0935-3.9598 0l-1.9799 1.9799c-1.0935 1.0935-1.0935 2.8663 0 3.9598 1.0934 1.0935 2.8663 1.0935 3.9598 0l1.9799-1.9799ZM33.6802 53.4793l1.9799-1.9799c1.0935-1.0935 1.0935-2.8663 0-3.9598-1.0935-1.0935-2.8663-1.0935-3.9598 0l-1.9799 1.9799c-1.0935 1.0935-1.0935 2.8663 0 3.9598 1.0935 1.0935 2.8663 1.0935 3.9598 0ZM42.64 39.0004a2.8 2.8 0 0 0-3.6397 3.6396l11.2 28a2.7999 2.7999 0 0 0 5.1042.2123l3.8626-7.7253 8.4531 8.453c1.0934 1.0935 2.8663 1.0935 3.9598 0 1.0934-1.0935 1.0934-2.8663 0-3.9598l-8.4531-8.453 7.7254-3.8627a2.8 2.8 0 0 0-.2123-5.1041l-28-11.2Z" fill="#FF7500"/></svg>