<svg width="100" height="100" fill="none" xmlns="http://www.w3.org/2000/svg"><circle cx="50" cy="50" r="50" fill="#FF7500" fill-opacity=".2"/><path fill-rule="evenodd" clip-rule="evenodd" d="M36 27.6c1.5464 0 2.8 1.2536 2.8 2.8v2.8h2.8c1.5464 0 2.8 1.2536 2.8 2.8 0 1.5464-1.2536 2.8-2.8 2.8h-2.8v2.8c0 1.5464-1.2536 2.8-2.8 2.8-1.5464 0-2.8-1.2536-2.8-2.8v-2.8h-2.8c-1.5464 0-2.8-1.2536-2.8-2.8 0-1.5464 1.2536-2.8 2.8-2.8h2.8v-2.8c0-1.5464 1.2536-2.8 2.8-2.8Zm0 28c1.5464 0 2.8 1.2536 2.8 2.8v2.8h2.8c1.5464 0 2.8 1.2536 2.8 2.8 0 1.5464-1.2536 2.8-2.8 2.8h-2.8v2.8c0 1.5464-1.2536 2.8-2.8 2.8-1.5464 0-2.8-1.2536-2.8-2.8v-2.8h-2.8c-1.5464 0-2.8-1.2536-2.8-2.8 0-1.5464 1.2536-2.8 2.8-2.8h2.8v-2.8c0-1.5464 1.2536-2.8 2.8-2.8ZM55.5998 27.6a2.8 2.8 0 0 1 2.7068 2.0835l3.3018 12.4735 9.3907 5.4177a2.8 2.8 0 0 1 0 4.8506l-9.3907 5.4177-3.3018 12.4735a2.8 2.8 0 0 1-5.4135 0L49.5912 57.843l-9.3905-5.4177a2.8002 2.8002 0 0 1 0-4.8506l9.3905-5.4177 3.3019-12.4735A2.7999 2.7999 0 0 1 55.5998 27.6Z" fill="#FF7500"/></svg>